<?xml version="1.0" encoding="utf-8"?>
<!-- Generator: Adobe Illustrator 27.2.0, SVG Export Plug-In . SVG Version: 6.00 Build 0)  -->
<svg version="1.1" id="Capa_1" xmlns="http://www.w3.org/2000/svg" xmlns:xlink="http://www.w3.org/1999/xlink" x="0px" y="0px"
	 viewBox="0 0 32 32" style="enable-background:new 0 0 32 32;" xml:space="preserve">
<style type="text/css">
	.st0{fill:#FFFFFF;}
	.st1{fill:#0000FF;}
</style>
<g>
	<path class="st0" d="M21.7,15.3c1.2-1,1.7-2.1,1.7-3.7c0-0.7-0.1-1.4-0.4-2.2c-1-2.5-3.3-3.3-5.8-3.3h-5v3.5c1.1,0,2.1,0,2.9,0V8.8
		h2.2c0.4,0,0.8,0,1.3,0c0.6,0.2,1.1,0.4,1.5,0.9c0.3,0.4,0.5,1,0.5,1.7c0,2-1.3,2.8-3.2,2.8h-2.4c0,0.1-2.9,2.8-2.9,2.8v8.7h5.9
		c2.5,0,4.9-0.8,6-3.4c0.3-0.7,0.5-1.5,0.5-2.4C24.6,17.9,23.5,16.3,21.7,15.3z M18.1,23H15v-6.2h2.8c1.2,0,2.4,0.1,3.2,1.2
		c0.4,0.5,0.7,1.2,0.7,2C21.7,22,20,23.1,18.1,23z"/>
	<path class="st0" d="M8.6,10.7l0.6,1.1c-1.8,1.4-3,3.7-3,6.2c0,2.2,0.8,4.1,2.3,5.5c-0.5-1-0.8-2.1-0.9-3.4c0-2.3,1.2-4.3,3-5.5
		l0.7,1.4l5.4-5.3C16.8,10.7,8.6,10.7,8.6,10.7z"/>
	<path class="st1" d="M17.8,16.9H15V23h3.1c2,0.1,3.6-1,3.6-3c0-0.7-0.3-1.4-0.7-2C20.1,17,19,16.9,17.8,16.9z"/>
	<path class="st1" d="M16,0.1C7.2,0.1,0.1,7.2,0.1,16S7.2,32,16,32S32,24.9,32,16S24.9,0.1,16,0.1z M16,29.4c-7.7,0-14-6.3-14-14
		s6.3-14,14-14s14,6.3,14,14S23.7,29.4,16,29.4z"/>
	<path class="st1" d="M16,1.4c-7.7,0-14,6.3-14,14s6.3,14,14,14s14-6.3,14-14S23.7,1.4,16,1.4z M10.6,14.6c-1.7,1.2-3,3.3-3,5.5
		c0.1,1.3,0.4,2.4,0.9,3.4c-1.4-1.4-2.3-3.4-2.3-5.5c0-2.5,1.1-4.7,3-6.2l-0.6-1.1h8.1L11.3,16L10.6,14.6z M24,22.4
		c-1,2.6-3.5,3.4-6,3.4h-5.9v-8.7c0,0,2.9-2.7,2.9-2.8h2.4c1.8,0,3.2-0.8,3.2-2.8c0-0.7-0.2-1.3-0.5-1.7c-0.4-0.5-0.9-0.7-1.5-0.9
		c-0.5,0-0.9,0-1.3,0h-2.2v0.8c-0.8,0-1.7,0-2.9,0V6.2h5C19.7,6.2,22,7,23,9.5c0.3,0.7,0.4,1.4,0.4,2.2c0,1.6-0.5,2.7-1.7,3.7
		c1.8,1,2.9,2.6,2.9,4.7C24.6,20.9,24.4,21.7,24,22.4z"/>
</g>
</svg>
